<svg xmlns="http://www.w3.org/2000/svg"
  viewBox="0 0 900 220" width="100%">
<defs>
  <style>
    @keyframes scan {
      0%   { transform: translateX(-20px); opacity: 0; }
      5%   { opacity: 1; }
      95%  { opacity: 1; }
      100% { transform: translateX(920px); opacity: 0; }
    }
    @keyframes windowPulse {
      0%,100% { opacity: 1; }
      50%     { opacity: 0.55; }
    }
    @keyframes statsFade {
      0%,100% { opacity: 0.7; }
      50%     { opacity: 1; }
    }
    @keyframes groundGlow {
      0%,100% { opacity: 0.18; }
      50%     { opacity: 0.32; }
    }
    .scanner { animation: scan 15.0s linear infinite; }
    .ground-glow { animation: groundGlow 4s ease-in-out infinite; }
    .stats { animation: statsFade 3s ease-in-out infinite; }
  </style>

  <!-- Sky gradient -->
  <linearGradient id="sky" x1="0" y1="0" x2="0" y2="1">
    <stop offset="0%"   stop-color="#020710"/>
    <stop offset="60%"  stop-color="#030c1c"/>
    <stop offset="100%" stop-color="#040f22"/>
  </linearGradient>

  <!-- Building gradient: dark base, slightly lit top -->
  <linearGradient id="bldg" x1="0" y1="0" x2="0" y2="1">
    <stop offset="0%"   stop-color="#0d1f3c"/>
    <stop offset="100%" stop-color="#060e1e"/>
  </linearGradient>

  <!-- Reflection fade gradient -->
  <linearGradient id="refFade" x1="0" y1="0" x2="0" y2="1">
    <stop offset="0%"   stop-color="white" stop-opacity="0.10"/>
    <stop offset="100%" stop-color="white" stop-opacity="0"/>
  </linearGradient>

  <!-- Scanner beam gradient -->
  <linearGradient id="scanGrad" x1="0" y1="0" x2="1" y2="0">
    <stop offset="0%"   stop-color="#60a5fa" stop-opacity="0"/>
    <stop offset="50%"  stop-color="#60a5fa" stop-opacity="0.18"/>
    <stop offset="100%" stop-color="#60a5fa" stop-opacity="0"/>
  </linearGradient>

  <!-- Clip to SVG bounds -->
  <clipPath id="bounds">
    <rect width="900" height="220"/>
  </clipPath>
</defs>

<!-- Sky -->
<rect width="900" height="220" fill="url(#sky)"/>

<circle cx="654" cy="33" r="0.4" fill="#93c5fd" opacity="0.17"/>
<circle cx="228" cy="40" r="0.9" fill="#93c5fd" opacity="0.27"/>
<circle cx="558" cy="27" r="0.8" fill="#93c5fd" opacity="0.11"/>
<circle cx="95" cy="60" r="0.6" fill="#93c5fd" opacity="0.25"/>
<circle cx="574" cy="55" r="0.9" fill="#93c5fd" opacity="0.28"/>
<circle cx="429" cy="61" r="0.7" fill="#93c5fd" opacity="0.17"/>
<circle cx="890" cy="6" r="0.9" fill="#93c5fd" opacity="0.14"/>
<circle cx="432" cy="92" r="0.6" fill="#93c5fd" opacity="0.15"/>
<circle cx="781" cy="91" r="0.5" fill="#93c5fd" opacity="0.19"/>
<circle cx="367" cy="93" r="0.8" fill="#93c5fd" opacity="0.3"/>
<circle cx="747" cy="122" r="0.8" fill="#93c5fd" opacity="0.34"/>
<circle cx="387" cy="25" r="0.8" fill="#93c5fd" opacity="0.31"/>
<circle cx="633" cy="97" r="0.8" fill="#93c5fd" opacity="0.28"/>
<circle cx="46" cy="63" r="0.9" fill="#93c5fd" opacity="0.35"/>
<circle cx="875" cy="64" r="1.0" fill="#93c5fd" opacity="0.2"/>
<circle cx="464" cy="98" r="0.5" fill="#93c5fd" opacity="0.19"/>
<circle cx="686" cy="73" r="0.9" fill="#93c5fd" opacity="0.27"/>
<circle cx="73" cy="48" r="0.8" fill="#93c5fd" opacity="0.16"/>
<circle cx="473" cy="102" r="0.6" fill="#93c5fd" opacity="0.33"/>
<circle cx="704" cy="147" r="0.6" fill="#93c5fd" opacity="0.18"/>
<circle cx="786" cy="19" r="0.6" fill="#93c5fd" opacity="0.11"/>
<circle cx="323" cy="107" r="0.6" fill="#93c5fd" opacity="0.15"/>
<circle cx="580" cy="85" r="0.5" fill="#93c5fd" opacity="0.22"/>
<circle cx="658" cy="122" r="0.5" fill="#93c5fd" opacity="0.13"/>
<circle cx="762" cy="148" r="0.8" fill="#93c5fd" opacity="0.29"/>
<circle cx="438" cy="154" r="0.7" fill="#93c5fd" opacity="0.15"/>
<circle cx="141" cy="135" r="0.7" fill="#93c5fd" opacity="0.29"/>
<circle cx="881" cy="33" r="0.5" fill="#93c5fd" opacity="0.14"/>
<circle cx="696" cy="113" r="0.8" fill="#93c5fd" opacity="0.2"/>
<circle cx="610" cy="124" r="0.8" fill="#93c5fd" opacity="0.34"/>
<circle cx="881" cy="7" r="0.9" fill="#93c5fd" opacity="0.13"/>
<circle cx="549" cy="73" r="0.9" fill="#93c5fd" opacity="0.19"/>
<circle cx="300" cy="116" r="0.5" fill="#93c5fd" opacity="0.1"/>
<circle cx="739" cy="72" r="1.1" fill="#93c5fd" opacity="0.29"/>
<circle cx="519" cy="32" r="1.0" fill="#93c5fd" opacity="0.17"/>
<circle cx="654" cy="134" r="0.8" fill="#93c5fd" opacity="0.14"/>
<circle cx="780" cy="46" r="0.8" fill="#93c5fd" opacity="0.29"/>
<circle cx="543" cy="5" r="0.8" fill="#93c5fd" opacity="0.22"/>
<circle cx="114" cy="97" r="1.0" fill="#93c5fd" opacity="0.31"/>
<circle cx="314" cy="66" r="0.4" fill="#93c5fd" opacity="0.32"/>
<circle cx="80" cy="26" r="0.9" fill="#93c5fd" opacity="0.3"/>
<circle cx="778" cy="141" r="0.9" fill="#93c5fd" opacity="0.13"/>
<circle cx="486" cy="145" r="0.5" fill="#93c5fd" opacity="0.23"/>
<circle cx="621" cy="113" r="1.1" fill="#93c5fd" opacity="0.33"/>
<circle cx="773" cy="56" r="0.9" fill="#93c5fd" opacity="0.2"/>
<circle cx="687" cy="100" r="0.7" fill="#93c5fd" opacity="0.23"/>
<circle cx="123" cy="68" r="0.6" fill="#93c5fd" opacity="0.18"/>
<circle cx="602" cy="146" r="0.6" fill="#93c5fd" opacity="0.16"/>
<circle cx="72" cy="20" r="0.6" fill="#93c5fd" opacity="0.33"/>
<circle cx="880" cy="89" r="0.4" fill="#93c5fd" opacity="0.16"/>
<circle cx="685" cy="129" r="0.5" fill="#93c5fd" opacity="0.13"/>
<circle cx="584" cy="152" r="0.7" fill="#93c5fd" opacity="0.3"/>
<circle cx="826" cy="109" r="0.5" fill="#93c5fd" opacity="0.12"/>
<circle cx="441" cy="95" r="0.7" fill="#93c5fd" opacity="0.22"/>
<circle cx="746" cy="18" r="0.9" fill="#93c5fd" opacity="0.35"/>
<rect x="26" y="147" width="14" height="38" fill="url(#bldg)" rx="1"/>
<rect x="28.0" y="151.5" width="10" height="5.5" fill="#60a5fa" opacity="0.64" rx="0.5" style="animation: windowPulse 2.4s ease-in-out 0.07s infinite;"/>
<rect x="28.0" y="156.2" width="10" height="5.5" fill="#60a5fa" opacity="0.38" rx="0.5" style="animation: windowPulse 2.8s ease-in-out 0.14s infinite;"/>
<rect x="28.0" y="161.0" width="10" height="5.5" fill="#60a5fa" opacity="0.51" rx="0.5" style="animation: windowPulse 3.2s ease-in-out 0.21s infinite;"/>
<rect x="28.0" y="165.8" width="10" height="5.5" fill="#60a5fa" opacity="0.51" rx="0.5" style="animation: windowPulse 3.6s ease-in-out 0.28s infinite;"/>
<line x1="26" y1="147" x2="40" y2="147" stroke="#1d4ed8" stroke-width="0.8" opacity="0.6"/>
<rect x="42" y="167" width="14" height="18" fill="url(#bldg)" rx="1"/>
<line x1="42" y1="167" x2="56" y2="167" stroke="#1d4ed8" stroke-width="0.8" opacity="0.6"/>
<rect x="58" y="154" width="14" height="31" fill="url(#bldg)" rx="1"/>
<rect x="60.0" y="152.9" width="10" height="5.5" fill="#60a5fa" opacity="0.38" rx="0.5" style="animation: windowPulse 2.8s ease-in-out 0.2s infinite;"/>
<rect x="60.0" y="156.8" width="10" height="5.5" fill="#60a5fa" opacity="0.38" rx="0.5" style="animation: windowPulse 3.2s ease-in-out 0.27s infinite;"/>
<rect x="60.0" y="160.6" width="10" height="5.5" fill="#60a5fa" opacity="0.51" rx="0.5" style="animation: windowPulse 3.6s ease-in-out 0.34s infinite;"/>
<rect x="60.0" y="168.4" width="10" height="5.5" fill="#60a5fa" opacity="0.38" rx="0.5" style="animation: windowPulse 2.4s ease-in-out 0.48s infinite;"/>
<line x1="58" y1="154" x2="72" y2="154" stroke="#1d4ed8" stroke-width="0.8" opacity="0.6"/>
<rect x="74" y="89" width="14" height="96" fill="url(#bldg)" rx="1"/>
<rect x="76.0" y="108.0" width="10" height="5.5" fill="#60a5fa" opacity="0.38" rx="0.5" style="animation: windowPulse 3.6s ease-in-out 0.37s infinite;"/>
<rect x="76.0" y="120.0" width="10" height="5.5" fill="#60a5fa" opacity="0.77" rx="0.5" style="animation: windowPulse 2.0s ease-in-out 0.44s infinite;"/>
<rect x="76.0" y="132.0" width="10" height="5.5" fill="#60a5fa" opacity="0.9" rx="0.5" style="animation: windowPulse 2.4s ease-in-out 0.51s infinite;"/>
<rect x="76.0" y="144.0" width="10" height="5.5" fill="#60a5fa" opacity="0.9" rx="0.5" style="animation: windowPulse 2.8s ease-in-out 0.58s infinite;"/>
<rect x="76.0" y="156.0" width="10" height="5.5" fill="#60a5fa" opacity="0.77" rx="0.5" style="animation: windowPulse 3.2s ease-in-out 0.65s infinite;"/>
<rect x="76.0" y="168.0" width="10" height="5.5" fill="#60a5fa" opacity="0.77" rx="0.5" style="animation: windowPulse 3.6s ease-in-out 0.72s infinite;"/>
<line x1="74" y1="89" x2="88" y2="89" stroke="#1d4ed8" stroke-width="0.8" opacity="0.6"/>
<rect x="90" y="147" width="14" height="38" fill="url(#bldg)" rx="1"/>
<rect x="92.0" y="146.8" width="10" height="5.5" fill="#60a5fa" opacity="0.64" rx="0.5" style="animation: windowPulse 3.6s ease-in-out 0.4s infinite;"/>
<rect x="92.0" y="151.5" width="10" height="5.5" fill="#60a5fa" opacity="0.51" rx="0.5" style="animation: windowPulse 2.0s ease-in-out 0.47s infinite;"/>
<rect x="92.0" y="156.2" width="10" height="5.5" fill="#60a5fa" opacity="0.64" rx="0.5" style="animation: windowPulse 2.4s ease-in-out 0.54s infinite;"/>
<line x1="90" y1="147" x2="104" y2="147" stroke="#1d4ed8" stroke-width="0.8" opacity="0.6"/>
<rect x="106" y="66" width="14" height="119" fill="url(#bldg)" rx="1"/>
<rect x="108.0" y="75.9" width="10" height="5.5" fill="#60a5fa" opacity="0.51" rx="0.5" style="animation: windowPulse 2.0s ease-in-out 0.5s infinite;"/>
<rect x="108.0" y="90.8" width="10" height="5.5" fill="#60a5fa" opacity="0.77" rx="0.5" style="animation: windowPulse 2.4s ease-in-out 0.57s infinite;"/>
<rect x="108.0" y="120.5" width="10" height="5.5" fill="#60a5fa" opacity="0.38" rx="0.5" style="animation: windowPulse 3.2s ease-in-out 0.71s infinite;"/>
<rect x="108.0" y="135.4" width="10" height="5.5" fill="#60a5fa" opacity="0.9" rx="0.5" style="animation: windowPulse 3.6s ease-in-out 0.78s infinite;"/>
<rect x="108.0" y="150.2" width="10" height="5.5" fill="#60a5fa" opacity="0.9" rx="0.5" style="animation: windowPulse 2.0s ease-in-out 0.85s infinite;"/>
<rect x="108.0" y="165.1" width="10" height="5.5" fill="#60a5fa" opacity="0.9" rx="0.5" style="animation: windowPulse 2.4s ease-in-out 0.92s infinite;"/>
<line x1="106" y1="66" x2="120" y2="66" stroke="#1d4ed8" stroke-width="0.8" opacity="0.6"/>
<rect x="122" y="167" width="14" height="18" fill="url(#bldg)" rx="1"/>
<line x1="122" y1="167" x2="136" y2="167" stroke="#1d4ed8" stroke-width="0.8" opacity="0.6"/>
<rect x="138" y="102" width="14" height="83" fill="url(#bldg)" rx="1"/>
<rect x="140.0" y="107.4" width="10" height="5.5" fill="#60a5fa" opacity="0.77" rx="0.5" style="animation: windowPulse 2.8s ease-in-out 0.7s infinite;"/>
<rect x="140.0" y="117.8" width="10" height="5.5" fill="#60a5fa" opacity="0.9" rx="0.5" style="animation: windowPulse 3.2s ease-in-out 0.77s infinite;"/>
<rect x="140.0" y="148.9" width="10" height="5.5" fill="#60a5fa" opacity="0.38" rx="0.5" style="animation: windowPulse 2.4s ease-in-out 0.98s infinite;"/>
<rect x="140.0" y="159.2" width="10" height="5.5" fill="#60a5fa" opacity="0.51" rx="0.5" style="animation: windowPulse 2.8s ease-in-out 1.05s infinite;"/>
<rect x="140.0" y="169.6" width="10" height="5.5" fill="#60a5fa" opacity="0.38" rx="0.5" style="animation: windowPulse 3.2s ease-in-out 1.12s infinite;"/>
<line x1="138" y1="102" x2="152" y2="102" stroke="#1d4ed8" stroke-width="0.8" opacity="0.6"/>
<rect x="154" y="105" width="14" height="80" fill="url(#bldg)" rx="1"/>
<rect x="156.0" y="110.0" width="10" height="5.5" fill="#60a5fa" opacity="0.51" rx="0.5" style="animation: windowPulse 3.2s ease-in-out 0.8s infinite;"/>
<rect x="156.0" y="120.0" width="10" height="5.5" fill="#60a5fa" opacity="0.77" rx="0.5" style="animation: windowPulse 3.6s ease-in-out 0.87s infinite;"/>
<rect x="156.0" y="130.0" width="10" height="5.5" fill="#60a5fa" opacity="0.51" rx="0.5" style="animation: windowPulse 2.0s ease-in-out 0.94s infinite;"/>
<rect x="156.0" y="140.0" width="10" height="5.5" fill="#60a5fa" opacity="0.64" rx="0.5" style="animation: windowPulse 2.4s ease-in-out 1.01s infinite;"/>
<rect x="156.0" y="150.0" width="10" height="5.5" fill="#60a5fa" opacity="0.77" rx="0.5" style="animation: windowPulse 2.8s ease-in-out 1.08s infinite;"/>
<rect x="156.0" y="160.0" width="10" height="5.5" fill="#60a5fa" opacity="0.38" rx="0.5" style="animation: windowPulse 3.2s ease-in-out 1.15s infinite;"/>
<rect x="156.0" y="170.0" width="10" height="5.5" fill="#60a5fa" opacity="0.9" rx="0.5" style="animation: windowPulse 3.6s ease-in-out 1.22s infinite;"/>
<line x1="154" y1="105" x2="168" y2="105" stroke="#1d4ed8" stroke-width="0.8" opacity="0.6"/>
<rect x="170" y="162" width="14" height="23" fill="url(#bldg)" rx="1"/>
<rect x="172.0" y="171.4" width="10" height="5.5" fill="#60a5fa" opacity="0.38" rx="0.5" style="animation: windowPulse 3.2s ease-in-out 1.18s infinite;"/>
<rect x="172.0" y="174.2" width="10" height="5.5" fill="#60a5fa" opacity="0.38" rx="0.5" style="animation: windowPulse 3.6s ease-in-out 1.25s infinite;"/>
<line x1="170" y1="162" x2="184" y2="162" stroke="#1d4ed8" stroke-width="0.8" opacity="0.6"/>
<rect x="186" y="79" width="14" height="106" fill="url(#bldg)" rx="1"/>
<rect x="188.0" y="127.0" width="10" height="5.5" fill="#60a5fa" opacity="0.9" rx="0.5" style="animation: windowPulse 3.2s ease-in-out 1.21s infinite;"/>
<rect x="188.0" y="153.5" width="10" height="5.5" fill="#60a5fa" opacity="0.77" rx="0.5" style="animation: windowPulse 2.0s ease-in-out 1.35s infinite;"/>
<line x1="186" y1="79" x2="200" y2="79" stroke="#1d4ed8" stroke-width="0.8" opacity="0.6"/>
<rect x="202" y="152" width="14" height="33" fill="url(#bldg)" rx="1"/>
<rect x="204.0" y="155.2" width="10" height="5.5" fill="#60a5fa" opacity="0.77" rx="0.5" style="animation: windowPulse 2.8s ease-in-out 1.17s infinite;"/>
<rect x="204.0" y="163.5" width="10" height="5.5" fill="#60a5fa" opacity="0.51" rx="0.5" style="animation: windowPulse 3.6s ease-in-out 1.31s infinite;"/>
<line x1="202" y1="152" x2="216" y2="152" stroke="#1d4ed8" stroke-width="0.8" opacity="0.6"/>
<rect x="218" y="121" width="14" height="64" fill="url(#bldg)" rx="1"/>
<rect x="220.0" y="156.0" width="10" height="5.5" fill="#60a5fa" opacity="0.38" rx="0.5" style="animation: windowPulse 2.4s ease-in-out 1.48s infinite;"/>
<rect x="220.0" y="164.0" width="10" height="5.5" fill="#60a5fa" opacity="0.9" rx="0.5" style="animation: windowPulse 2.8s ease-in-out 1.55s infinite;"/>
<rect x="220.0" y="172.0" width="10" height="5.5" fill="#60a5fa" opacity="0.9" rx="0.5" style="animation: windowPulse 3.2s ease-in-out 1.62s infinite;"/>
<line x1="218" y1="121" x2="232" y2="121" stroke="#1d4ed8" stroke-width="0.8" opacity="0.6"/>
<rect x="234" y="97" width="14" height="88" fill="url(#bldg)" rx="1"/>
<rect x="236.0" y="103.0" width="10" height="5.5" fill="#60a5fa" opacity="0.9" rx="0.5" style="animation: windowPulse 3.2s ease-in-out 1.3s infinite;"/>
<rect x="236.0" y="125.0" width="10" height="5.5" fill="#60a5fa" opacity="0.9" rx="0.5" style="animation: windowPulse 2.0s ease-in-out 1.44s infinite;"/>
<rect x="236.0" y="136.0" width="10" height="5.5" fill="#60a5fa" opacity="0.9" rx="0.5" style="animation: windowPulse 2.4s ease-in-out 1.51s infinite;"/>
<line x1="234" y1="97" x2="248" y2="97" stroke="#1d4ed8" stroke-width="0.8" opacity="0.6"/>
<rect x="250" y="167" width="14" height="18" fill="url(#bldg)" rx="1"/>
<line x1="250" y1="167" x2="264" y2="167" stroke="#1d4ed8" stroke-width="0.8" opacity="0.6"/>
<rect x="266" y="134" width="14" height="51" fill="url(#bldg)" rx="1"/>
<rect x="268.0" y="135.4" width="10" height="5.5" fill="#60a5fa" opacity="0.38" rx="0.5" style="animation: windowPulse 2.0s ease-in-out 1.5s infinite;"/>
<rect x="268.0" y="141.8" width="10" height="5.5" fill="#60a5fa" opacity="0.51" rx="0.5" style="animation: windowPulse 2.4s ease-in-out 1.57s infinite;"/>
<rect x="268.0" y="148.1" width="10" height="5.5" fill="#60a5fa" opacity="0.9" rx="0.5" style="animation: windowPulse 2.8s ease-in-out 1.64s infinite;"/>
<rect x="268.0" y="167.2" width="10" height="5.5" fill="#60a5fa" opacity="0.77" rx="0.5" style="animation: windowPulse 2.0s ease-in-out 1.85s infinite;"/>
<line x1="266" y1="134" x2="280" y2="134" stroke="#1d4ed8" stroke-width="0.8" opacity="0.6"/>
<rect x="282" y="84" width="14" height="101" fill="url(#bldg)" rx="1"/>
<rect x="284.0" y="116.9" width="10" height="5.5" fill="#60a5fa" opacity="0.9" rx="0.5" style="animation: windowPulse 3.2s ease-in-out 1.74s infinite;"/>
<rect x="284.0" y="129.5" width="10" height="5.5" fill="#60a5fa" opacity="0.51" rx="0.5" style="animation: windowPulse 3.6s ease-in-out 1.81s infinite;"/>
<rect x="284.0" y="154.8" width="10" height="5.5" fill="#60a5fa" opacity="0.9" rx="0.5" style="animation: windowPulse 2.4s ease-in-out 1.95s infinite;"/>
<rect x="284.0" y="167.4" width="10" height="5.5" fill="#60a5fa" opacity="0.9" rx="0.5" style="animation: windowPulse 2.8s ease-in-out 0.02s infinite;"/>
<line x1="282" y1="84" x2="296" y2="84" stroke="#1d4ed8" stroke-width="0.8" opacity="0.6"/>
<rect x="298" y="149" width="14" height="36" fill="url(#bldg)" rx="1"/>
<rect x="300.0" y="148.5" width="10" height="5.5" fill="#60a5fa" opacity="0.38" rx="0.5" style="animation: windowPulse 2.8s ease-in-out 1.7s infinite;"/>
<rect x="300.0" y="157.5" width="10" height="5.5" fill="#60a5fa" opacity="0.64" rx="0.5" style="animation: windowPulse 3.6s ease-in-out 1.84s infinite;"/>
<rect x="300.0" y="162.0" width="10" height="5.5" fill="#60a5fa" opacity="0.51" rx="0.5" style="animation: windowPulse 2.0s ease-in-out 1.91s infinite;"/>
<rect x="300.0" y="166.5" width="10" height="5.5" fill="#60a5fa" opacity="0.38" rx="0.5" style="animation: windowPulse 2.4s ease-in-out 1.98s infinite;"/>
<line x1="298" y1="149" x2="312" y2="149" stroke="#1d4ed8" stroke-width="0.8" opacity="0.6"/>
<rect x="314" y="115" width="14" height="70" fill="url(#bldg)" rx="1"/>
<rect x="316.0" y="118.8" width="10" height="5.5" fill="#60a5fa" opacity="0.9" rx="0.5" style="animation: windowPulse 3.2s ease-in-out 1.8s infinite;"/>
<rect x="316.0" y="127.5" width="10" height="5.5" fill="#60a5fa" opacity="0.9" rx="0.5" style="animation: windowPulse 3.6s ease-in-out 1.87s infinite;"/>
<rect x="316.0" y="145.0" width="10" height="5.5" fill="#60a5fa" opacity="0.38" rx="0.5" style="animation: windowPulse 2.4s ease-in-out 0.01s infinite;"/>
<rect x="316.0" y="153.8" width="10" height="5.5" fill="#60a5fa" opacity="0.51" rx="0.5" style="animation: windowPulse 2.8s ease-in-out 0.08s infinite;"/>
<rect x="316.0" y="162.5" width="10" height="5.5" fill="#60a5fa" opacity="0.77" rx="0.5" style="animation: windowPulse 3.2s ease-in-out 0.15s infinite;"/>
<line x1="314" y1="115" x2="328" y2="115" stroke="#1d4ed8" stroke-width="0.8" opacity="0.6"/>
<rect x="330" y="167" width="14" height="18" fill="url(#bldg)" rx="1"/>
<line x1="330" y1="167" x2="344" y2="167" stroke="#1d4ed8" stroke-width="0.8" opacity="0.6"/>
<rect x="346" y="167" width="14" height="18" fill="url(#bldg)" rx="1"/>
<line x1="346" y1="167" x2="360" y2="167" stroke="#1d4ed8" stroke-width="0.8" opacity="0.6"/>
<rect x="362" y="157" width="14" height="28" fill="url(#bldg)" rx="1"/>
<rect x="364.0" y="173.0" width="10" height="5.5" fill="#60a5fa" opacity="0.77" rx="0.5" style="animation: windowPulse 2.4s ease-in-out 0.45s infinite;"/>
<line x1="362" y1="157" x2="376" y2="157" stroke="#1d4ed8" stroke-width="0.8" opacity="0.6"/>
<rect x="378" y="167" width="14" height="18" fill="url(#bldg)" rx="1"/>
<line x1="378" y1="167" x2="392" y2="167" stroke="#1d4ed8" stroke-width="0.8" opacity="0.6"/>
<rect x="394" y="167" width="14" height="18" fill="url(#bldg)" rx="1"/>
<line x1="394" y1="167" x2="408" y2="167" stroke="#1d4ed8" stroke-width="0.8" opacity="0.6"/>
<rect x="410" y="167" width="14" height="18" fill="url(#bldg)" rx="1"/>
<line x1="410" y1="167" x2="424" y2="167" stroke="#1d4ed8" stroke-width="0.8" opacity="0.6"/>
<rect x="426" y="167" width="14" height="18" fill="url(#bldg)" rx="1"/>
<line x1="426" y1="167" x2="440" y2="167" stroke="#1d4ed8" stroke-width="0.8" opacity="0.6"/>
<rect x="442" y="167" width="14" height="18" fill="url(#bldg)" rx="1"/>
<line x1="442" y1="167" x2="456" y2="167" stroke="#1d4ed8" stroke-width="0.8" opacity="0.6"/>
<rect x="458" y="167" width="14" height="18" fill="url(#bldg)" rx="1"/>
<line x1="458" y1="167" x2="472" y2="167" stroke="#1d4ed8" stroke-width="0.8" opacity="0.6"/>
<rect x="474" y="167" width="14" height="18" fill="url(#bldg)" rx="1"/>
<line x1="474" y1="167" x2="488" y2="167" stroke="#1d4ed8" stroke-width="0.8" opacity="0.6"/>
<rect x="490" y="149" width="14" height="36" fill="url(#bldg)" rx="1"/>
<rect x="492.0" y="175.5" width="10" height="5.5" fill="#60a5fa" opacity="0.9" rx="0.5" style="animation: windowPulse 2.0s ease-in-out 1.32s infinite;"/>
<line x1="490" y1="149" x2="504" y2="149" stroke="#1d4ed8" stroke-width="0.8" opacity="0.6"/>
<rect x="506" y="128" width="14" height="57" fill="url(#bldg)" rx="1"/>
<rect x="508.0" y="172.9" width="10" height="5.5" fill="#60a5fa" opacity="0.9" rx="0.5" style="animation: windowPulse 2.4s ease-in-out 1.42s infinite;"/>
<line x1="506" y1="128" x2="520" y2="128" stroke="#1d4ed8" stroke-width="0.8" opacity="0.6"/>
<rect x="522" y="167" width="14" height="18" fill="url(#bldg)" rx="1"/>
<line x1="522" y1="167" x2="536" y2="167" stroke="#1d4ed8" stroke-width="0.8" opacity="0.6"/>
<rect x="538" y="149" width="14" height="36" fill="url(#bldg)" rx="1"/>
<rect x="540.0" y="153.0" width="10" height="5.5" fill="#60a5fa" opacity="0.9" rx="0.5" style="animation: windowPulse 3.2s ease-in-out 1.27s infinite;"/>
<rect x="540.0" y="157.5" width="10" height="5.5" fill="#60a5fa" opacity="0.38" rx="0.5" style="animation: windowPulse 3.6s ease-in-out 1.34s infinite;"/>
<line x1="538" y1="149" x2="552" y2="149" stroke="#1d4ed8" stroke-width="0.8" opacity="0.6"/>
<rect x="554" y="149" width="14" height="36" fill="url(#bldg)" rx="1"/>
<rect x="556.0" y="175.5" width="10" height="5.5" fill="#60a5fa" opacity="0.9" rx="0.5" style="animation: windowPulse 3.6s ease-in-out 1.72s infinite;"/>
<line x1="554" y1="149" x2="568" y2="149" stroke="#1d4ed8" stroke-width="0.8" opacity="0.6"/>
<rect x="570" y="167" width="14" height="18" fill="url(#bldg)" rx="1"/>
<line x1="570" y1="167" x2="584" y2="167" stroke="#1d4ed8" stroke-width="0.8" opacity="0.6"/>
<rect x="586" y="167" width="14" height="18" fill="url(#bldg)" rx="1"/>
<line x1="586" y1="167" x2="600" y2="167" stroke="#1d4ed8" stroke-width="0.8" opacity="0.6"/>
<rect x="602" y="152" width="14" height="33" fill="url(#bldg)" rx="1"/>
<rect x="604.0" y="163.5" width="10" height="5.5" fill="#60a5fa" opacity="0.9" rx="0.5" style="animation: windowPulse 3.6s ease-in-out 1.81s infinite;"/>
<line x1="602" y1="152" x2="616" y2="152" stroke="#1d4ed8" stroke-width="0.8" opacity="0.6"/>
<rect x="618" y="89" width="14" height="96" fill="url(#bldg)" rx="1"/>
<rect x="620.0" y="132.0" width="10" height="5.5" fill="#60a5fa" opacity="0.9" rx="0.5" style="animation: windowPulse 2.0s ease-in-out 1.91s infinite;"/>
<rect x="620.0" y="144.0" width="10" height="5.5" fill="#60a5fa" opacity="0.9" rx="0.5" style="animation: windowPulse 2.4s ease-in-out 1.98s infinite;"/>
<rect x="620.0" y="156.0" width="10" height="5.5" fill="#60a5fa" opacity="0.9" rx="0.5" style="animation: windowPulse 2.8s ease-in-out 0.05s infinite;"/>
<rect x="620.0" y="168.0" width="10" height="5.5" fill="#60a5fa" opacity="0.9" rx="0.5" style="animation: windowPulse 3.2s ease-in-out 0.12s infinite;"/>
<line x1="618" y1="89" x2="632" y2="89" stroke="#1d4ed8" stroke-width="0.8" opacity="0.6"/>
<rect x="634" y="76" width="14" height="109" fill="url(#bldg)" rx="1"/>
<rect x="636.0" y="84.6" width="10" height="5.5" fill="#60a5fa" opacity="0.77" rx="0.5" style="animation: windowPulse 3.2s ease-in-out 1.8s infinite;"/>
<rect x="636.0" y="98.2" width="10" height="5.5" fill="#60a5fa" opacity="0.77" rx="0.5" style="animation: windowPulse 3.6s ease-in-out 1.87s infinite;"/>
<rect x="636.0" y="111.9" width="10" height="5.5" fill="#60a5fa" opacity="0.77" rx="0.5" style="animation: windowPulse 2.0s ease-in-out 1.94s infinite;"/>
<rect x="636.0" y="125.5" width="10" height="5.5" fill="#60a5fa" opacity="0.9" rx="0.5" style="animation: windowPulse 2.4s ease-in-out 0.01s infinite;"/>
<rect x="636.0" y="139.1" width="10" height="5.5" fill="#60a5fa" opacity="0.64" rx="0.5" style="animation: windowPulse 2.8s ease-in-out 0.08s infinite;"/>
<rect x="636.0" y="152.8" width="10" height="5.5" fill="#60a5fa" opacity="0.77" rx="0.5" style="animation: windowPulse 3.2s ease-in-out 0.15s infinite;"/>
<rect x="636.0" y="166.4" width="10" height="5.5" fill="#60a5fa" opacity="0.77" rx="0.5" style="animation: windowPulse 3.6s ease-in-out 0.22s infinite;"/>
<line x1="634" y1="76" x2="648" y2="76" stroke="#1d4ed8" stroke-width="0.8" opacity="0.6"/>
<rect x="650" y="131" width="14" height="54" fill="url(#bldg)" rx="1"/>
<rect x="652.0" y="132.8" width="10" height="5.5" fill="#60a5fa" opacity="0.51" rx="0.5" style="animation: windowPulse 3.6s ease-in-out 1.9s infinite;"/>
<rect x="652.0" y="139.5" width="10" height="5.5" fill="#60a5fa" opacity="0.64" rx="0.5" style="animation: windowPulse 2.0s ease-in-out 1.97s infinite;"/>
<rect x="652.0" y="146.2" width="10" height="5.5" fill="#60a5fa" opacity="0.51" rx="0.5" style="animation: windowPulse 2.4s ease-in-out 0.04s infinite;"/>
<rect x="652.0" y="153.0" width="10" height="5.5" fill="#60a5fa" opacity="0.38" rx="0.5" style="animation: windowPulse 2.8s ease-in-out 0.11s infinite;"/>
<rect x="652.0" y="159.8" width="10" height="5.5" fill="#60a5fa" opacity="0.51" rx="0.5" style="animation: windowPulse 3.2s ease-in-out 0.18s infinite;"/>
<rect x="652.0" y="166.5" width="10" height="5.5" fill="#60a5fa" opacity="0.51" rx="0.5" style="animation: windowPulse 3.6s ease-in-out 0.25s infinite;"/>
<rect x="652.0" y="173.2" width="10" height="5.5" fill="#60a5fa" opacity="0.51" rx="0.5" style="animation: windowPulse 2.0s ease-in-out 0.32s infinite;"/>
<line x1="650" y1="131" x2="664" y2="131" stroke="#1d4ed8" stroke-width="0.8" opacity="0.6"/>
<rect x="666" y="55" width="14" height="130" fill="url(#bldg)" rx="1"/>
<rect x="668.0" y="66.2" width="10" height="5.5" fill="#60a5fa" opacity="0.9" rx="0.5" style="animation: windowPulse 2.0s ease-in-out 0.0s infinite;"/>
<rect x="668.0" y="82.5" width="10" height="5.5" fill="#60a5fa" opacity="0.77" rx="0.5" style="animation: windowPulse 2.4s ease-in-out 0.07s infinite;"/>
<rect x="668.0" y="98.8" width="10" height="5.5" fill="#60a5fa" opacity="0.9" rx="0.5" style="animation: windowPulse 2.8s ease-in-out 0.14s infinite;"/>
<rect x="668.0" y="115.0" width="10" height="5.5" fill="#60a5fa" opacity="0.9" rx="0.5" style="animation: windowPulse 3.2s ease-in-out 0.21s infinite;"/>
<rect x="668.0" y="131.2" width="10" height="5.5" fill="#60a5fa" opacity="0.51" rx="0.5" style="animation: windowPulse 3.6s ease-in-out 0.28s infinite;"/>
<rect x="668.0" y="147.5" width="10" height="5.5" fill="#60a5fa" opacity="0.9" rx="0.5" style="animation: windowPulse 2.0s ease-in-out 0.35s infinite;"/>
<rect x="668.0" y="163.8" width="10" height="5.5" fill="#60a5fa" opacity="0.64" rx="0.5" style="animation: windowPulse 2.4s ease-in-out 0.42s infinite;"/>
<line x1="666" y1="55" x2="680" y2="55" stroke="#1d4ed8" stroke-width="0.8" opacity="0.6"/>
<rect x="682" y="152" width="14" height="33" fill="url(#bldg)" rx="1"/>
<rect x="684.0" y="151.1" width="10" height="5.5" fill="#60a5fa" opacity="0.51" rx="0.5" style="animation: windowPulse 2.4s ease-in-out 0.1s infinite;"/>
<rect x="684.0" y="155.2" width="10" height="5.5" fill="#60a5fa" opacity="0.51" rx="0.5" style="animation: windowPulse 2.8s ease-in-out 0.17s infinite;"/>
<rect x="684.0" y="163.5" width="10" height="5.5" fill="#60a5fa" opacity="0.38" rx="0.5" style="animation: windowPulse 3.6s ease-in-out 0.31s infinite;"/>
<rect x="684.0" y="167.6" width="10" height="5.5" fill="#60a5fa" opacity="0.38" rx="0.5" style="animation: windowPulse 2.0s ease-in-out 0.38s infinite;"/>
<line x1="682" y1="152" x2="696" y2="152" stroke="#1d4ed8" stroke-width="0.8" opacity="0.6"/>
<rect x="698" y="167" width="14" height="18" fill="url(#bldg)" rx="1"/>
<line x1="698" y1="167" x2="712" y2="167" stroke="#1d4ed8" stroke-width="0.8" opacity="0.6"/>
<rect x="714" y="165" width="14" height="20" fill="url(#bldg)" rx="1"/>
<rect x="716.0" y="165.0" width="10" height="5.5" fill="#60a5fa" opacity="0.38" rx="0.5" style="animation: windowPulse 3.6s ease-in-out 0.37s infinite;"/>
<line x1="714" y1="165" x2="728" y2="165" stroke="#1d4ed8" stroke-width="0.8" opacity="0.6"/>
<rect x="730" y="167" width="14" height="18" fill="url(#bldg)" rx="1"/>
<line x1="730" y1="167" x2="744" y2="167" stroke="#1d4ed8" stroke-width="0.8" opacity="0.6"/>
<rect x="746" y="144" width="14" height="41" fill="url(#bldg)" rx="1"/>
<rect x="748.0" y="159.5" width="10" height="5.5" fill="#60a5fa" opacity="0.38" rx="0.5" style="animation: windowPulse 3.2s ease-in-out 0.71s infinite;"/>
<rect x="748.0" y="174.9" width="10" height="5.5" fill="#60a5fa" opacity="0.9" rx="0.5" style="animation: windowPulse 2.4s ease-in-out 0.92s infinite;"/>
<line x1="746" y1="144" x2="760" y2="144" stroke="#1d4ed8" stroke-width="0.8" opacity="0.6"/>
<rect x="762" y="128" width="14" height="57" fill="url(#bldg)" rx="1"/>
<rect x="764.0" y="151.5" width="10" height="5.5" fill="#60a5fa" opacity="0.38" rx="0.5" style="animation: windowPulse 3.6s ease-in-out 0.81s infinite;"/>
<rect x="764.0" y="158.6" width="10" height="5.5" fill="#60a5fa" opacity="0.9" rx="0.5" style="animation: windowPulse 2.0s ease-in-out 0.88s infinite;"/>
<rect x="764.0" y="165.8" width="10" height="5.5" fill="#60a5fa" opacity="0.9" rx="0.5" style="animation: windowPulse 2.4s ease-in-out 0.95s infinite;"/>
<rect x="764.0" y="172.9" width="10" height="5.5" fill="#60a5fa" opacity="0.51" rx="0.5" style="animation: windowPulse 2.8s ease-in-out 1.02s infinite;"/>
<line x1="762" y1="128" x2="776" y2="128" stroke="#1d4ed8" stroke-width="0.8" opacity="0.6"/>
<rect x="778" y="89" width="14" height="96" fill="url(#bldg)" rx="1"/>
<rect x="780.0" y="96.0" width="10" height="5.5" fill="#60a5fa" opacity="0.9" rx="0.5" style="animation: windowPulse 2.8s ease-in-out 0.7s infinite;"/>
<rect x="780.0" y="108.0" width="10" height="5.5" fill="#60a5fa" opacity="0.9" rx="0.5" style="animation: windowPulse 3.2s ease-in-out 0.77s infinite;"/>
<rect x="780.0" y="132.0" width="10" height="5.5" fill="#60a5fa" opacity="0.9" rx="0.5" style="animation: windowPulse 2.0s ease-in-out 0.91s infinite;"/>
<line x1="778" y1="89" x2="792" y2="89" stroke="#1d4ed8" stroke-width="0.8" opacity="0.6"/>
<rect x="794" y="154" width="14" height="31" fill="url(#bldg)" rx="1"/>
<rect x="796.0" y="160.6" width="10" height="5.5" fill="#60a5fa" opacity="0.77" rx="0.5" style="animation: windowPulse 2.0s ease-in-out 0.94s infinite;"/>
<rect x="796.0" y="176.1" width="10" height="5.5" fill="#60a5fa" opacity="0.38" rx="0.5" style="animation: windowPulse 3.6s ease-in-out 1.22s infinite;"/>
<line x1="794" y1="154" x2="808" y2="154" stroke="#1d4ed8" stroke-width="0.8" opacity="0.6"/>
<rect x="810" y="167" width="14" height="18" fill="url(#bldg)" rx="1"/>
<line x1="810" y1="167" x2="824" y2="167" stroke="#1d4ed8" stroke-width="0.8" opacity="0.6"/>
<rect x="826" y="139" width="14" height="46" fill="url(#bldg)" rx="1"/>
<rect x="828.0" y="145.5" width="10" height="5.5" fill="#60a5fa" opacity="0.38" rx="0.5" style="animation: windowPulse 2.4s ease-in-out 1.07s infinite;"/>
<rect x="828.0" y="157.0" width="10" height="5.5" fill="#60a5fa" opacity="0.9" rx="0.5" style="animation: windowPulse 3.2s ease-in-out 1.21s infinite;"/>
<rect x="828.0" y="162.8" width="10" height="5.5" fill="#60a5fa" opacity="0.64" rx="0.5" style="animation: windowPulse 3.6s ease-in-out 1.28s infinite;"/>
<rect x="828.0" y="174.2" width="10" height="5.5" fill="#60a5fa" opacity="0.38" rx="0.5" style="animation: windowPulse 2.4s ease-in-out 1.42s infinite;"/>
<line x1="826" y1="139" x2="840" y2="139" stroke="#1d4ed8" stroke-width="0.8" opacity="0.6"/>
<rect x="842" y="92" width="14" height="93" fill="url(#bldg)" rx="1"/>
<rect x="844.0" y="98.6" width="10" height="5.5" fill="#60a5fa" opacity="0.38" rx="0.5" style="animation: windowPulse 2.4s ease-in-out 1.1s infinite;"/>
<rect x="844.0" y="110.2" width="10" height="5.5" fill="#60a5fa" opacity="0.9" rx="0.5" style="animation: windowPulse 2.8s ease-in-out 1.17s infinite;"/>
<rect x="844.0" y="121.9" width="10" height="5.5" fill="#60a5fa" opacity="0.38" rx="0.5" style="animation: windowPulse 3.2s ease-in-out 1.24s infinite;"/>
<rect x="844.0" y="145.1" width="10" height="5.5" fill="#60a5fa" opacity="0.64" rx="0.5" style="animation: windowPulse 2.0s ease-in-out 1.38s infinite;"/>
<rect x="844.0" y="156.8" width="10" height="5.5" fill="#60a5fa" opacity="0.9" rx="0.5" style="animation: windowPulse 2.4s ease-in-out 1.45s infinite;"/>
<rect x="844.0" y="168.4" width="10" height="5.5" fill="#60a5fa" opacity="0.9" rx="0.5" style="animation: windowPulse 2.8s ease-in-out 1.52s infinite;"/>
<line x1="842" y1="92" x2="856" y2="92" stroke="#1d4ed8" stroke-width="0.8" opacity="0.6"/>
<rect x="858" y="74" width="14" height="111" fill="url(#bldg)" rx="1"/>
<rect x="860.0" y="82.9" width="10" height="5.5" fill="#60a5fa" opacity="0.9" rx="0.5" style="animation: windowPulse 2.8s ease-in-out 1.2s infinite;"/>
<rect x="860.0" y="96.8" width="10" height="5.5" fill="#60a5fa" opacity="0.9" rx="0.5" style="animation: windowPulse 3.2s ease-in-out 1.27s infinite;"/>
<line x1="858" y1="74" x2="872" y2="74" stroke="#1d4ed8" stroke-width="0.8" opacity="0.6"/>
<line x1="0" y1="185" x2="900" y2="185" stroke="#1d4ed8" stroke-width="0.8" opacity="0.5"/>
<g clip-path="url(#bounds)" class="ground-glow">
<rect x="26" y="185" width="14" height="11" fill="#0d1f3c" opacity="0.6"/>
<rect x="42" y="185" width="14" height="5" fill="#0d1f3c" opacity="0.6"/>
<rect x="58" y="185" width="14" height="9" fill="#0d1f3c" opacity="0.6"/>
<rect x="74" y="185" width="14" height="28" fill="#0d1f3c" opacity="0.6"/>
<rect x="90" y="185" width="14" height="11" fill="#0d1f3c" opacity="0.6"/>
<rect x="106" y="185" width="14" height="35" fill="#0d1f3c" opacity="0.6"/>
<rect x="122" y="185" width="14" height="5" fill="#0d1f3c" opacity="0.6"/>
<rect x="138" y="185" width="14" height="24" fill="#0d1f3c" opacity="0.6"/>
<rect x="154" y="185" width="14" height="24" fill="#0d1f3c" opacity="0.6"/>
<rect x="170" y="185" width="14" height="6" fill="#0d1f3c" opacity="0.6"/>
<rect x="186" y="185" width="14" height="31" fill="#0d1f3c" opacity="0.6"/>
<rect x="202" y="185" width="14" height="9" fill="#0d1f3c" opacity="0.6"/>
<rect x="218" y="185" width="14" height="19" fill="#0d1f3c" opacity="0.6"/>
<rect x="234" y="185" width="14" height="26" fill="#0d1f3c" opacity="0.6"/>
<rect x="250" y="185" width="14" height="5" fill="#0d1f3c" opacity="0.6"/>
<rect x="266" y="185" width="14" height="15" fill="#0d1f3c" opacity="0.6"/>
<rect x="282" y="185" width="14" height="30" fill="#0d1f3c" opacity="0.6"/>
<rect x="298" y="185" width="14" height="10" fill="#0d1f3c" opacity="0.6"/>
<rect x="314" y="185" width="14" height="21" fill="#0d1f3c" opacity="0.6"/>
<rect x="330" y="185" width="14" height="5" fill="#0d1f3c" opacity="0.6"/>
<rect x="346" y="185" width="14" height="5" fill="#0d1f3c" opacity="0.6"/>
<rect x="362" y="185" width="14" height="8" fill="#0d1f3c" opacity="0.6"/>
<rect x="378" y="185" width="14" height="5" fill="#0d1f3c" opacity="0.6"/>
<rect x="394" y="185" width="14" height="5" fill="#0d1f3c" opacity="0.6"/>
<rect x="410" y="185" width="14" height="5" fill="#0d1f3c" opacity="0.6"/>
<rect x="426" y="185" width="14" height="5" fill="#0d1f3c" opacity="0.6"/>
<rect x="442" y="185" width="14" height="5" fill="#0d1f3c" opacity="0.6"/>
<rect x="458" y="185" width="14" height="5" fill="#0d1f3c" opacity="0.6"/>
<rect x="474" y="185" width="14" height="5" fill="#0d1f3c" opacity="0.6"/>
<rect x="490" y="185" width="14" height="10" fill="#0d1f3c" opacity="0.6"/>
<rect x="506" y="185" width="14" height="17" fill="#0d1f3c" opacity="0.6"/>
<rect x="522" y="185" width="14" height="5" fill="#0d1f3c" opacity="0.6"/>
<rect x="538" y="185" width="14" height="10" fill="#0d1f3c" opacity="0.6"/>
<rect x="554" y="185" width="14" height="10" fill="#0d1f3c" opacity="0.6"/>
<rect x="570" y="185" width="14" height="5" fill="#0d1f3c" opacity="0.6"/>
<rect x="586" y="185" width="14" height="5" fill="#0d1f3c" opacity="0.6"/>
<rect x="602" y="185" width="14" height="9" fill="#0d1f3c" opacity="0.6"/>
<rect x="618" y="185" width="14" height="28" fill="#0d1f3c" opacity="0.6"/>
<rect x="634" y="185" width="14" height="32" fill="#0d1f3c" opacity="0.6"/>
<rect x="650" y="185" width="14" height="16" fill="#0d1f3c" opacity="0.6"/>
<rect x="666" y="185" width="14" height="39" fill="#0d1f3c" opacity="0.6"/>
<rect x="682" y="185" width="14" height="9" fill="#0d1f3c" opacity="0.6"/>
<rect x="698" y="185" width="14" height="5" fill="#0d1f3c" opacity="0.6"/>
<rect x="714" y="185" width="14" height="6" fill="#0d1f3c" opacity="0.6"/>
<rect x="730" y="185" width="14" height="5" fill="#0d1f3c" opacity="0.6"/>
<rect x="746" y="185" width="14" height="12" fill="#0d1f3c" opacity="0.6"/>
<rect x="762" y="185" width="14" height="17" fill="#0d1f3c" opacity="0.6"/>
<rect x="778" y="185" width="14" height="28" fill="#0d1f3c" opacity="0.6"/>
<rect x="794" y="185" width="14" height="9" fill="#0d1f3c" opacity="0.6"/>
<rect x="810" y="185" width="14" height="5" fill="#0d1f3c" opacity="0.6"/>
<rect x="826" y="185" width="14" height="13" fill="#0d1f3c" opacity="0.6"/>
<rect x="842" y="185" width="14" height="27" fill="#0d1f3c" opacity="0.6"/>
<rect x="858" y="185" width="14" height="33" fill="#0d1f3c" opacity="0.6"/>
<rect x="0" y="185" width="900" height="35" fill="url(#refFade)"/>
</g>
<rect x="0" y="0" width="40" height="185" fill="url(#scanGrad)" class="scanner" clip-path="url(#bounds)"/>

<g class="stats">
  <text x="12" y="20"
    font-family="'Courier New', monospace"
    font-size="9" fill="#3b82f6" opacity="0.85"
    letter-spacing="1">
    CONTRIBUTIONS: 608
  </text>
  <text x="12" y="33"
    font-family="'Courier New', monospace"
    font-size="9" fill="#60a5fa" opacity="0.7"
    letter-spacing="1">
    STREAK: 5 DAYS
  </text>
</g>

</svg>